<svg width="24" height="24" viewBox="0 0 24 24" fill="none" xmlns="http://www.w3.org/2000/svg">
<path d="M12.0143 15.8331C13.6436 15.8331 14.9643 14.5124 14.9643 12.8832C14.9643 11.2539 13.6436 9.93315 12.0143 9.93315C10.3851 9.93315 9.06434 11.2539 9.06434 12.8832C9.06434 14.5124 10.3851 15.8331 12.0143 15.8331Z" fill="#7E7E7E"/>
<path fill-rule="evenodd" clip-rule="evenodd" d="M18 5.96229H16.3476C15.9111 4.84519 14.8242 4.05389 13.5524 4.05389H10.4476C9.17585 4.05389 8.08894 4.84519 7.65236 5.96229H6C4.34315 5.96229 3 7.30543 3 8.96229V16.9623C3 18.6191 4.34315 19.9623 6 19.9623H18C19.6569 19.9623 21 18.6191 21 16.9623V8.96229C21 7.30543 19.6569 5.96229 18 5.96229ZM17.01 9.12142C17.01 8.57161 17.4557 8.12142 18.0055 8.12142C18.5553 8.12142 19.001 8.57161 19.001 9.12142C19.001 9.67124 18.5553 10.1214 18.0055 10.1214C17.4557 10.1214 17.01 9.67124 17.01 9.12142ZM12.0143 17.1332C14.3616 17.1332 16.2643 15.2304 16.2643 12.8832C16.2643 10.5359 14.3616 8.63315 12.0143 8.63315C9.66713 8.63315 7.76434 10.5359 7.76434 12.8832C7.76434 15.2304 9.66713 17.1332 12.0143 17.1332Z" fill="#7E7E7E"/>
</svg>
